<svg width="42" height="40" viewBox="0 0 42 40" fill="none" xmlns="http://www.w3.org/2000/svg">
<rect width="40" height="40" rx="20" fill="#CBD5E0"/>
<rect x="30" width="12" height="12" rx="6" fill="#319795"/>
<path d="M35 7.79298L33.3535 6.14648L32.6465 6.85348L35 9.20698L39.8535 4.35348L39.1465 3.64648L35 7.79298Z" fill="white"/>
<path d="M14.6994 26.1345C14.469 26.1345 14.2834 26.0833 14.1426 25.9809C14.0146 25.8785 13.9378 25.7377 13.9122 25.5585C13.8866 25.3793 13.925 25.1809 14.0274 24.9633L19.269 13.0977C19.3842 12.8289 19.5314 12.6369 19.7106 12.5217C19.8898 12.3937 20.0882 12.3297 20.3058 12.3297C20.5234 12.3297 20.7154 12.3937 20.8818 12.5217C21.061 12.6369 21.2146 12.8289 21.3426 13.0977L26.5842 24.9633C26.6866 25.1809 26.725 25.3857 26.6994 25.5777C26.6866 25.7569 26.6162 25.8977 26.4882 26.0001C26.3602 26.0897 26.181 26.1345 25.9506 26.1345C25.6946 26.1345 25.4898 26.0705 25.3362 25.9425C25.1826 25.8017 25.0482 25.6033 24.933 25.3473L23.5698 22.1601L24.3954 22.6209H16.1778L17.0034 22.1601L15.6402 25.3473C15.525 25.6289 15.397 25.8337 15.2562 25.9617C15.1154 26.0769 14.9298 26.1345 14.6994 26.1345ZM20.2674 14.4801L17.2722 21.5649L16.8114 21.1617H23.7618L23.3202 21.5649L20.3058 14.4801H20.2674Z" fill="white"/>
</svg>
