<svg width="25" height="25" viewBox="0 0 25 25" fill="none" xmlns="http://www.w3.org/2000/svg">
<path d="M21.4521 10.5H7.45215V7.5C7.45215 6.397 8.34915 5.5 9.45215 5.5C10.5551 5.5 11.4521 6.397 11.4521 7.5H13.4521C13.4521 5.294 11.6581 3.5 9.45215 3.5C7.24615 3.5 5.45215 5.294 5.45215 7.5V10.5H3.45215C3.18693 10.5 2.93258 10.6054 2.74504 10.7929C2.55751 10.9804 2.45215 11.2348 2.45215 11.5V13.5C2.45215 16.106 4.12615 18.323 6.45215 19.15V22.5H8.45215V19.5H16.4521V22.5H18.4521V19.15C20.7781 18.323 22.4521 16.106 22.4521 13.5V11.5C22.4521 11.2348 22.3468 10.9804 22.1593 10.7929C21.9717 10.6054 21.7174 10.5 21.4521 10.5ZM20.4521 13.5C20.4521 15.706 18.6581 17.5 16.4521 17.5H8.45215C6.24615 17.5 4.45215 15.706 4.45215 13.5V12.5H20.4521V13.5Z" fill="#2D3748"/>
</svg>
