<svg width="25" height="25" viewBox="0 0 25 25" fill="none" xmlns="http://www.w3.org/2000/svg">
<path d="M20.4521 10.057V3.5H18.4521V5.5H6.45215V3.5H4.45215V10.057C3.26215 10.75 2.45215 12.025 2.45215 13.5V17.5C2.45215 17.7652 2.55751 18.0196 2.74504 18.2071C2.93258 18.3946 3.18693 18.5 3.45215 18.5H4.45215V22.5H6.45215V18.5H18.4521V22.5H20.4521V18.5H21.4521C21.7174 18.5 21.9717 18.3946 22.1593 18.2071C22.3468 18.0196 22.4521 17.7652 22.4521 17.5V13.5C22.4521 12.025 21.6411 10.75 20.4521 10.057ZM18.4521 7.5V9.5H13.4521V7.5H18.4521ZM6.45215 7.5H11.4521V9.5H6.45215V7.5ZM20.4521 16.5H4.45215V13.5C4.45215 12.397 5.34915 11.5 6.45215 11.5H18.4521C19.5551 11.5 20.4521 12.397 20.4521 13.5V16.5Z" fill="#2D3748"/>
</svg>
