<svg width="17" height="17" viewBox="0 0 17 17" fill="none" xmlns="http://www.w3.org/2000/svg">
<path d="M6.55765 4.30815L6.28921 3.70417C6.11369 3.30925 6.02593 3.11179 5.89469 2.96067C5.7302 2.77129 5.51579 2.63196 5.27593 2.55857C5.08454 2.5 4.86845 2.5 4.43629 2.5C3.80409 2.5 3.48799 2.5 3.22263 2.62153C2.91006 2.76468 2.62777 3.07552 2.5153 3.4004C2.41982 3.67619 2.44717 3.95962 2.50187 4.52647C3.08409 10.5601 6.39203 13.8681 12.4257 14.4503C12.9925 14.505 13.276 14.5323 13.5517 14.4369C13.8767 14.3244 14.1875 14.0421 14.3307 13.7295C14.4521 13.4641 14.4521 13.1481 14.4521 12.5159C14.4521 12.0837 14.4521 11.8676 14.3936 11.6762C14.3202 11.4363 14.1809 11.2219 13.9915 11.0575C13.8404 10.9262 13.6429 10.8385 13.248 10.6629L12.644 10.3945C12.2163 10.2044 12.0025 10.1094 11.7852 10.0887C11.5772 10.0689 11.3675 10.0981 11.1729 10.1739C10.9695 10.2531 10.7897 10.4029 10.4301 10.7025C10.0723 11.0008 9.89332 11.1499 9.67465 11.2298C9.48079 11.3006 9.22452 11.3269 9.02039 11.2967C8.79005 11.2628 8.61372 11.1686 8.26099 10.9801C7.16365 10.3937 6.5585 9.78853 5.97206 8.69113C5.78357 8.33847 5.68933 8.16207 5.65539 7.9318C5.62531 7.7276 5.65153 7.47133 5.72235 7.27753C5.80223 7.05885 5.95135 6.87991 6.24961 6.522C6.54923 6.16245 6.69904 5.98268 6.77825 5.77927C6.85405 5.58463 6.88323 5.37493 6.86345 5.16699C6.84277 4.94968 6.74773 4.73584 6.55765 4.30815Z" fill="#2D3748"/>
</svg>
