<svg width="13" height="13" viewBox="0 0 13 13" fill="none" xmlns="http://www.w3.org/2000/svg">
<path d="M10.5479 4.5V3.5C10.5479 2.675 9.87285 2 9.04785 2H4.04785C3.22285 2 2.54785 2.675 2.54785 3.5V4.5C1.72285 4.5 1.04785 5.175 1.04785 6V8.5C1.04785 9.325 1.72285 10 2.54785 10V10.5C2.54785 10.775 2.77285 11 3.04785 11C3.32285 11 3.54785 10.775 3.54785 10.5V10H9.54785V10.5C9.54785 10.775 9.77285 11 10.0479 11C10.3229 11 10.5479 10.775 10.5479 10.5V10C11.3729 10 12.0479 9.325 12.0479 8.5V6C12.0479 5.175 11.3729 4.5 10.5479 4.5ZM3.54785 3.5C3.54785 3.225 3.77285 3 4.04785 3H9.04785C9.32285 3 9.54785 3.225 9.54785 3.5V4.89C9.24285 5.165 9.04785 5.56 9.04785 6V7H4.04785V6C4.04785 5.56 3.85285 5.165 3.54785 4.89V3.5ZM11.0479 8.5C11.0479 8.775 10.8229 9 10.5479 9H2.54785C2.27285 9 2.04785 8.775 2.04785 8.5V6C2.04785 5.725 2.27285 5.5 2.54785 5.5C2.82285 5.5 3.04785 5.725 3.04785 6V8H10.0479V6C10.0479 5.725 10.2729 5.5 10.5479 5.5C10.8229 5.5 11.0479 5.725 11.0479 6V8.5Z" fill="#2D3748"/>
</svg>
