<svg width="13" height="13" viewBox="0 0 13 13" fill="none" xmlns="http://www.w3.org/2000/svg">
<path d="M6.54785 1.5C3.79085 1.5 1.54785 3.743 1.54785 6.5C1.54785 9.257 3.79085 11.5 6.54785 11.5C9.30485 11.5 11.5479 9.257 11.5479 6.5C11.5479 3.743 9.30485 1.5 6.54785 1.5ZM6.54785 10.5C4.34235 10.5 2.54785 8.7055 2.54785 6.5C2.54785 4.2945 4.34235 2.5 6.54785 2.5C8.75335 2.5 10.5479 4.2945 10.5479 6.5C10.5479 8.7055 8.75335 10.5 6.54785 10.5Z" fill="#38A169"/>
<path d="M5.54739 7.29348L4.39789 6.14598L3.69189 6.85398L5.54839 8.70648L8.90139 5.35348L8.19439 4.64648L5.54739 7.29348Z" fill="#38A169"/>
</svg>
