<svg width="13" height="13" viewBox="0 0 13 13" fill="none" xmlns="http://www.w3.org/2000/svg">
<path d="M8.54736 4.75H9.54736C9.54736 3.3315 8.16986 2.6845 7.04736 2.5355V1.5H6.04736V2.5355C4.92486 2.6845 3.54736 3.3315 3.54736 4.75C3.54736 6.103 4.88036 6.8065 6.04736 6.965V9.45C5.32336 9.3245 4.54736 8.938 4.54736 8.25H3.54736C3.54736 9.5445 4.75986 10.3095 6.04736 10.468V11.5H7.04736V10.465C8.16986 10.316 9.54736 9.6685 9.54736 8.25C9.54736 6.8315 8.16986 6.1845 7.04736 6.0355V3.55C7.71236 3.6695 8.54736 4.0205 8.54736 4.75ZM4.54736 4.75C4.54736 4.0205 5.38236 3.6695 6.04736 3.55V5.9495C5.36186 5.823 4.54736 5.4485 4.54736 4.75ZM8.54736 8.25C8.54736 8.9795 7.71236 9.3305 7.04736 9.45V7.05C7.71236 7.1695 8.54736 7.5205 8.54736 8.25Z" fill="#C05621"/>
</svg>
