<svg width="13" height="13" viewBox="0 0 13 13" fill="none" xmlns="http://www.w3.org/2000/svg">
<path fill-rule="evenodd" clip-rule="evenodd" d="M5.86491 1.55986C8.45241 1.18773 10.9507 2.96473 11.4439 5.53838L11.4857 5.79787L11.4866 5.7987L11.5175 6.10925C11.5253 6.21236 11.5312 6.31532 11.5359 6.41645V6.4943C11.5325 6.57508 11.5155 6.66428 11.4673 6.74206C11.3935 6.86066 11.2682 6.9201 11.1166 6.92036C10.9733 6.92036 10.8504 6.86787 10.77 6.76132C10.6964 6.66312 10.675 6.54137 10.6746 6.43486C10.6746 5.84607 10.5349 5.29079 10.2871 4.75908L10.1749 4.53308C9.43963 3.14735 7.77277 2.24705 6.23572 2.38771L6.08757 2.40445C4.34018 2.64394 2.92717 3.88898 2.53762 5.48816L2.5033 5.64385C2.04157 7.98185 3.53893 10.1858 5.90007 10.5615L6.24493 10.6067C7.04854 10.6894 7.84958 10.61 8.60459 10.2753L8.72261 10.2183C8.98876 10.0804 9.19019 9.90235 9.33199 9.691C9.49402 9.44913 9.58589 9.153 9.59984 8.80373L9.60068 8.6924C9.5897 8.2191 9.38285 7.83689 9.01307 7.53894L8.83059 7.40668L6.76558 6.06154C6.69811 6.01669 6.65906 6.00625 6.63416 6.00546C6.62292 6.00518 6.60779 6.00695 6.58812 6.01383L6.50944 6.05568C6.25586 6.22703 5.99692 6.39279 5.74186 6.55707C5.48959 6.71957 5.23922 6.88123 4.99605 7.0501C4.96122 7.0792 4.9325 7.11546 4.91151 7.15557C4.89033 7.19625 4.87758 7.24134 4.87384 7.28699C4.85281 7.75832 4.86656 8.22517 4.86379 8.70998L4.86547 8.7828C4.86635 8.80956 4.86722 8.84146 4.8663 8.8732C4.86458 8.93185 4.85565 9.01677 4.81022 9.09335L4.81106 9.09418C4.77399 9.15773 4.71994 9.2233 4.65955 9.27583C4.61701 9.31275 4.55836 9.35371 4.49047 9.37627L4.41932 9.39218C4.3484 9.39947 4.28751 9.37077 4.25442 9.352C4.216 9.33012 4.18002 9.30106 4.14979 9.27164C4.11921 9.2418 4.08905 9.20588 4.06524 9.16868C4.04304 9.13382 4.01787 9.08458 4.01 9.02889C3.9722 8.77079 3.98331 8.49658 3.9807 8.26466V7.70468C3.92031 7.74307 3.86677 7.77941 3.81245 7.81098C3.73854 7.85367 3.62746 7.91322 3.51028 7.92566C3.44738 7.9322 3.37725 7.92588 3.30855 7.89385C3.23963 7.86158 3.18321 7.80868 3.13946 7.74234C3.05171 7.60881 3.0372 7.46511 3.09677 7.33386C3.15025 7.21658 3.25337 7.13072 3.35124 7.07103C3.43229 7.02155 3.50796 6.96952 3.5898 6.9145C3.67004 6.86055 3.75595 6.80436 3.84845 6.75462C3.90963 6.72162 3.93865 6.68859 3.95475 6.65836C3.96325 6.64225 3.97076 6.62225 3.97568 6.59725L3.98321 6.5035C3.97711 5.76604 3.97878 5.02841 3.98321 4.29117C3.98323 4.18216 3.98692 4.08341 4.00247 4.00071C4.01846 3.91608 4.04995 3.8298 4.11965 3.76215C4.18879 3.69528 4.27567 3.66573 4.35989 3.65082C4.44296 3.63624 4.54275 3.63255 4.65286 3.63241L5.99716 3.63576C6.44408 3.63659 6.89142 3.63568 7.33812 3.62906L7.60598 3.63659C7.86995 3.65558 8.1207 3.71203 8.34594 3.82326C8.64984 3.9735 8.89784 4.21855 9.06999 4.57912L9.12691 4.70886C9.24626 5.01188 9.27464 5.31016 9.21731 5.60116C9.16337 5.8745 9.03454 6.13278 8.84984 6.37795C9.00346 6.48127 9.15191 6.58232 9.3052 6.68012C10.0727 7.16419 10.4523 7.86432 10.4578 8.73174L10.4536 8.90752C10.4279 9.41592 10.2891 9.86463 10.0301 10.2351C9.77071 10.6059 9.39741 10.8894 8.91932 11.0772C8.46873 11.251 7.99658 11.37 7.51725 11.4304L7.51642 11.4296C6.01444 11.6227 4.5945 11.3597 3.38305 10.3531C2.34941 9.49486 1.75206 8.40305 1.59594 7.08777L1.57083 6.82158C1.39228 4.31271 3.14951 2.09411 5.60542 1.60423L5.86491 1.55986ZM4.91234 4.50462L4.89225 4.52136C4.88743 4.52595 4.88255 4.53123 4.87886 4.53559L4.87719 4.53643C4.86616 5.03647 4.86789 5.53754 4.86882 6.08665C5.35494 5.77447 5.79947 5.49296 6.23489 5.19603L6.33282 5.13743C6.43127 5.08626 6.53389 5.05799 6.6417 5.06042L6.74633 5.07214C6.84877 5.09351 6.94483 5.14167 7.03511 5.2044L8.02618 5.85981L8.02702 5.86065L8.09147 5.89664C8.10213 5.90015 8.10905 5.89999 8.10905 5.89999L8.1124 5.89915C8.1142 5.89826 8.11754 5.89616 8.12161 5.89329C8.13134 5.88631 8.14636 5.87264 8.16513 5.84809L8.23545 5.74848C8.38437 5.51711 8.42919 5.28981 8.32501 5.0395C8.18834 4.71165 7.97623 4.51642 7.67713 4.50546C6.75854 4.48148 5.83662 4.49309 4.91234 4.50462Z" fill="#2C5282"/>
</svg>
